<?xml version="1.0" encoding="utf-8"?>
<!-- Generator: Adobe Illustrator 24.0.2, SVG Export Plug-In . SVG Version: 6.00 Build 0)  -->
<svg version="1.1" id="Layer_1" xmlns="http://www.w3.org/2000/svg" xmlns:xlink="http://www.w3.org/1999/xlink" x="0px" y="0px"
	 viewBox="0 0 700 700" style="enable-background:new 0 0 700 700;" xml:space="preserve">
<style type="text/css">
	.st0{fill:#FFFFFF;}
</style>
<path class="st0" d="M350,45.8c-8.2,0-16.3,2.1-23.6,6.3L66.7,201.7C52,210.1,43,225.7,43,242.6v379.8c0,17.4,14.3,31.8,31.8,31.8
	h550.5c17.4,0,31.8-14.3,31.8-31.8V242.6c0-16.9-9-32.5-23.7-40.9L373.6,52.2C366.3,47.9,358.2,45.8,350,45.8L350,45.8z M350,67
	c4.5,0,9,1.2,13.1,3.5L622.8,220c8.1,4.7,13,13.2,13,22.6v379.8c0,6-4.6,10.6-10.6,10.6l-264.7,0V368.3c0-17.4-14.3-31.8-31.8-31.8
	H159.4c-17.4,0-31.8,14.3-31.8,31.8V633H74.8c-6,0-10.6-4.6-10.6-10.6V242.6c0-9.3,5-17.9,13-22.6L336.9,70.5
	C341,68.1,345.5,67,350,67L350,67z M438.2,336.6c-17.4,0-31.8,14.3-31.8,31.8v102.4c0,17.4,14.3,31.8,31.8,31.8h102.4
	c17.4,0,31.8-14.3,31.8-31.8V368.3c0-17.4-14.3-31.8-31.8-31.8H438.2z M159.4,357.8h169.4c6,0,10.6,4.6,10.6,10.6V633H148.9V368.3
	C148.9,362.4,153.5,357.8,159.4,357.8z M438.2,357.8h40.6v123.5h-40.6c-6,0-10.6-4.6-10.6-10.6V368.3
	C427.6,362.4,432.2,357.8,438.2,357.8L438.2,357.8z M499.9,357.8h40.6c6,0,10.6,4.6,10.6,10.6v102.4c0,6-4.6,10.6-10.6,10.6h-40.6
	V357.8z M297.3,478.6c-5.8,0-10.6,4.7-10.6,10.6v30.7c0,2.8,1.1,5.5,3.1,7.5c2,2,4.7,3.1,7.5,3.1s5.5-1.1,7.5-3.1
	c2-2,3.1-4.7,3.1-7.5v-30.7c0-2.8-1.1-5.5-3.1-7.5C302.8,479.7,300.1,478.6,297.3,478.6z"/>
</svg>
